<?xml version="1.0" encoding="utf-8"?>
<!-- Generator: Adobe Illustrator 16.0.0, SVG Export Plug-In . SVG Version: 6.00 Build 0)  -->
<!DOCTYPE svg PUBLIC "-//W3C//DTD SVG 1.1//EN" "http://www.w3.org/Graphics/SVG/1.1/DTD/svg11.dtd">
<svg version="1.1" id="Layer_1" xmlns="http://www.w3.org/2000/svg" xmlns:xlink="http://www.w3.org/1999/xlink" x="0px" y="0px"
	 width="68.812px" height="60px" viewBox="10.125 0 68.812 60" enable-background="new 10.125 0 68.812 60" xml:space="preserve">
<title>Asset 1</title>
<g id="Layer_2">
	<g id="Layer_1_Image">
		<path d="M14.038,59.955c0,0,0.087-56.409,0.087-56.705l5.507-3.217v4.26h5.633V0.052h5.462v4.227h5.623V0.033h5.453v4.26h5.591
			c0-1.244,0-2.443,0-3.642c0-0.318-0.035-0.653,0.446-0.653c1.632,0,3.263,0,5.001,0v4.306h5.641c0-0.289,0-0.55,0-0.807
			c0.01-0.987,0-1.975,0.047-2.96c0.009-0.185,0.248-0.508,0.387-0.511C60.566-0.01,62.219,0,63.961,0v4.292h5.623V0.039
			l5.379,3.211v56.692H58.511v-0.925c0-10.158,0-20.317,0-30.477c0-0.433,0-0.867-0.015-1.3c-0.316-8.536-8.442-14.834-16.785-13.01
			c-6.55,1.432-11.035,7.021-11.037,13.764c0,10.304,0,20.606,0,30.91c0,0.35,0,0.7,0,1.059c-0.253,0.015-0.395,0.03-0.538,0.03
			c-3.322,0-6.644,0-9.966,0C18.127,59.992,16.082,59.97,14.038,59.955z"/>
		<path d="M54.862,43.052l-0.489,3.015c-0.954-0.967-0.73-1.959-0.789-2.939h-2.022c-0.118,0.938,0.205,1.965-0.598,2.727
			c-0.767-0.754-0.483-1.766-0.571-2.735h-2.031c-0.111,0.917,0.199,1.97-0.578,2.744c-0.77-0.771-0.479-1.792-0.59-2.756h-1.906
			l-0.484,2.94c-0.974-0.943-0.695-1.953-0.786-2.924h-1.931l-0.478,2.962c-0.96-0.965-0.693-2.001-0.792-2.978h-1.908l-0.482,2.939
			c-0.986-0.95-0.722-1.986-0.79-2.938H35.72l-0.493,2.976c-0.929-0.985-0.737-1.985-0.786-3.018h-0.867
			c-0.264,0-0.558,0.065-0.787-0.026c-0.304-0.119-0.559-0.365-0.835-0.556c0.289-0.175,0.563-0.449,0.867-0.504
			c0.489-0.085,1.011-0.023,1.576-0.023v-2.074c-0.422,0-0.828,0.022-1.228-0.007c-0.285-0.018-0.566-0.078-0.833-0.178
			c-0.155-0.06-0.357-0.234-0.363-0.367c-0.005-0.133,0.194-0.34,0.339-0.377c0.393-0.092,0.792-0.15,1.193-0.178
			c0.289-0.025,0.567,0,0.904,0v-2.115c-0.545,0-1.098,0.053-1.632-0.022c-0.289-0.04-0.553-0.299-0.829-0.459
			c0.241-0.194,0.458-0.501,0.722-0.556c0.553-0.115,1.135-0.093,1.746-0.131v-2c-0.466,0-0.95,0.069-1.401-0.021
			c-0.377-0.077-0.722-0.343-1.072-0.524c0.353-0.195,0.685-0.476,1.062-0.561c0.434-0.099,0.9-0.023,1.403-0.023v-2.06
			c-0.399,0-0.776,0-1.156,0c-0.215,0-0.455,0.03-0.64-0.049c-0.246-0.107-0.449-0.309-0.672-0.471
			c0.224-0.185,0.434-0.485,0.678-0.531c0.559-0.103,1.141-0.08,1.775-0.111V27.12c-0.396,0-0.796,0-1.194,0
			c-0.214,0-0.455,0.024-0.633-0.065c-0.208-0.105-0.36-0.322-0.536-0.489c0.176-0.168,0.335-0.446,0.534-0.479
			c0.578-0.099,1.185-0.099,1.834-0.145v-2h-1.71c0.191-1.028,0.191-1.028,1.771-1.203c0-0.426,0-0.867,0-1.316
			c0-1.208,0.051-1.34,0.984-2.213c0.586,0.841,1.413,0.208,2.167,0.451v-2.262c0.876-0.774,1.924-1.155,3.169-0.934l-0.145-0.253
			l1.233-0.867l0.153,1.047h1.975l0.097-1.127h1.02l0.091,1.125h1.974l0.107-0.867c0.49,0.166,1.156-0.029,1.082,0.893
			c1.056-0.068,2.057,0.029,2.869,0.722c0.171,0.175,0.273,0.407,0.288,0.651c0.04,0.578,0.013,1.148,0.013,1.706
			c1.114,0.289,1.917,0.167,2.133-0.289c1.526,0.793,0.941,2.255,1.082,3.559c0.705,0.131,1.797-0.289,1.732,1.132H54.77v2.102
			c0.418,0,0.842-0.021,1.263,0.007c0.284,0.014,0.563,0.077,0.826,0.186c0.153,0.095,0.257,0.254,0.281,0.434
			c0.012,0.101-0.167,0.297-0.288,0.325c-0.417,0.086-0.838,0.146-1.262,0.179c-0.258,0.024-0.52,0-0.829,0v2.047
			c0.38,0,0.733,0,1.088,0c0.217,0,0.465-0.046,0.64,0.042c0.273,0.145,0.496,0.374,0.738,0.567
			c-0.268,0.17-0.519,0.443-0.805,0.488c-0.516,0.08-1.051,0.023-1.644,0.023v2.057c0.235,0,0.489,0,0.743,0
			c0.255,0,0.555-0.06,0.788,0.028c0.327,0.125,0.614,0.361,0.917,0.549c-0.326,0.186-0.635,0.461-0.982,0.531
			c-0.457,0.092-0.949,0.022-1.478,0.022v2.047c0.415,0,0.817-0.026,1.218,0.009c0.307,0.024,0.607,0.095,0.895,0.207
			c0.145,0.059,0.327,0.262,0.318,0.389c-0.047,0.176-0.177,0.315-0.348,0.375c-0.418,0.089-0.842,0.148-1.268,0.179
			c-0.258,0.024-0.521,0-0.821,0v2.068c0.455,0,0.883-0.024,1.3,0.009c0.31,0.014,0.613,0.082,0.898,0.203
			c0.4,0.192,0.397,0.514-0.012,0.666c-0.406,0.127-0.828,0.203-1.254,0.23c-0.307,0.016-0.613,0.016-0.921,0v2.03
			c0.232,0.013,0.483,0.032,0.737,0.04c0.312,0.01,0.646-0.059,0.932,0.032c0.283,0.091,0.521,0.338,0.777,0.517
			c-0.255,0.184-0.494,0.48-0.772,0.525C55.926,43.111,55.361,43.052,54.862,43.052z M43.968,33.555h-1.944v1.959h1.944V33.555z
			 M43.968,17.639h-1.947v1.914h1.951L43.968,17.639z M42.027,20.807v1.945h1.928v-1.945H42.027z M42.013,25.93h1.958v-1.915h-1.954
			L42.013,25.93z M43.977,29.142v-1.954h-1.953v1.954H43.977z M43.977,36.738h-1.953v1.951h1.956L43.977,36.738z M51.564,38.709h2
			v-1.984h-2V38.709z M48.398,25.925h1.963v-1.919h-1.965L48.398,25.925z M40.759,32.318v-1.953h-1.918v1.953H40.759z
			 M48.389,32.299h1.964v-1.912h-1.964V32.299z M53.548,32.316v-1.935h-1.946v1.935H53.548z M35.637,33.543V35.5h1.944v-1.957
			H35.637z M40.768,33.543h-1.927v1.96h1.941L40.768,33.543z M37.582,30.378h-1.927v1.934h1.927V30.378z M50.352,35.499v-1.936
			h-1.918v1.936H50.352z M51.602,33.551v1.93h1.943v-1.932L51.602,33.551z M35.647,36.729v1.98h1.921v-1.985L35.647,36.729z
			 M38.825,36.712v1.983h1.934v-1.987L38.825,36.712z M50.364,36.746h-1.95v1.946h1.961L50.364,36.746z M37.582,41.879v-1.938H35.64
			v1.938L37.582,41.879z M50.365,41.879V39.94h-1.951v1.938H50.365z M51.611,41.865h1.945v-1.93h-1.951L51.611,41.865z
			 M40.778,19.571v-1.93h-1.94v1.93H40.778z M40.76,22.749v-1.93h-1.93v1.933L40.76,22.749z M45.236,20.816v1.978
			c0.558,0,1.061,0.027,1.556-0.018c0.145-0.013,0.384-0.216,0.396-0.349c0.047-0.519,0.02-1.043,0.02-1.611H45.236z M48.414,22.739
			h1.955v-1.921h-1.955V22.739z M38.829,25.941h1.944v-1.943h-1.944V25.941z M45.217,25.934h1.955v-1.928h-1.955V25.934z
			 M53.542,25.946V24.02h-1.933v1.926H53.542z M51.606,27.179v1.931h1.938v-1.931H51.606z M45.217,29.129h1.939v-1.944h-1.939
			V29.129z M48.395,29.106h1.961v-1.914h-1.984c0,0.47,0,0.896,0,1.322c0.003,0.188,0.019,0.374,0.029,0.592H48.395z M45.217,19.545
			c2.375,0.104,2,0.373,1.957-1.807c0-0.021-0.025-0.039-0.072-0.11h-1.878L45.217,19.545z M47.152,41.887V39.93h-1.907v1.957
			H47.152z M48.398,19.596c0.578,0,1.082,0.026,1.576-0.016c0.145-0.013,0.398-0.205,0.41-0.332c0.046-0.535,0.02-1.075,0.02-1.604
			h-2.008L48.398,19.596z M37.582,22.758v-1.93h-1.94v1.928L37.582,22.758z M47.166,30.386h-1.937v1.936h1.931L47.166,30.386z
			 M53.563,22.742v-1.926h-1.972v1.926H53.563z M37.582,25.958V24.01h-1.926v1.948H37.582z M45.213,33.534v1.954h1.929v-1.954
			H45.213z M40.765,29.132v-1.95h-1.922v1.951L40.765,29.132z M37.582,27.202h-1.936v1.933h1.936V27.202z M43.97,30.364h-1.936
			v1.958h1.936V30.364z M47.168,36.758h-1.932v1.951h1.932V36.758z M38.853,39.92v1.967h1.906v-1.965L38.853,39.92z M42.043,41.857
			h1.921v-1.936h-1.921V41.857z"/>
	</g>
</g>
</svg>
